<?xml version="1.0" encoding="UTF-8" standalone="no"?><!DOCTYPE svg PUBLIC "-//W3C//DTD SVG 1.1//EN" "http://www.w3.org/Graphics/SVG/1.1/DTD/svg11.dtd"><svg width="100%" height="100%" viewBox="0 0 120 120" version="1.1" xmlns="http://www.w3.org/2000/svg" xmlns:xlink="http://www.w3.org/1999/xlink" xml:space="preserve" xmlns:serif="http://www.serif.com/" style="fill-rule:evenodd;clip-rule:evenodd;stroke-linejoin:round;stroke-miterlimit:1.41421;"><clipPath id="_clip1"><path d="M48.353,35.647l23.294,0c13.45,0 24.353,10.903 24.353,24.353c0,13.45 -10.903,24.353 -24.353,24.353l-23.294,0c-13.45,0 -24.353,-10.903 -24.353,-24.353c0,-13.45 10.903,-24.353 24.353,-24.353Z"/></clipPath><g clip-path="url(#_clip1)"><rect x="13.412" y="25.059" width="93.176" height="69.882" style="fill:#8bd9f9;"/></g><clipPath id="_clip2"><path d="M71.647,35.647c13.45,0 24.353,10.903 24.353,24.353c0,13.45 -10.903,24.353 -24.353,24.353c-13.45,0 -24.353,-10.903 -24.353,-24.353c0,-13.45 10.903,-24.353 24.353,-24.353Z"/></clipPath><g clip-path="url(#_clip2)"><rect x="36.706" y="25.059" width="69.882" height="69.882" style="fill:#399ac2;"/></g></svg>